<?xml version="1.0" encoding="UTF-8"?>
<svg id="Blå_rosa_-_ikon" data-name="Blå/rosa - ikon" xmlns="http://www.w3.org/2000/svg" viewBox="0 0 101.76 101.76">
  <defs>
    <style>
      .cls-1 {
        fill: #25333c;
      }

      .cls-2 {
        fill: #f1c3b0;
      }
    </style>
  </defs>
  <circle class="cls-2" cx="69.3" cy="58.11" r="8.55"/>
  <circle class="cls-1" cx="46.55" cy="24.38" r="12.87"/>
  <path class="cls-1" d="M70.6,70.33c-8.76-.41-15.89-7.5-16.35-16.26-.05-.89-.03-1.76.06-2.61.29-2.99-.69-5.96-2.81-8.08h-.01c-3.17-3.18-7.32-4.77-11.47-4.77-4.49,0-8.99,1.86-12.23,5.57-5.65,6.45-5.12,16.25.94,22.31l23.68,23.68c1.61,1.61,4.21,1.61,5.81,0l19.47-19.47c.57-.57-.02-1.5-.78-1.24-1.97.66-4.09.98-6.31.88Z"/>
</svg>